<?xml version="1.0" encoding="UTF-8"?>
<svg id="Layer_1" data-name="Layer 1" xmlns="http://www.w3.org/2000/svg" viewBox="0 0 300 300">
  <defs>
    <style>
      .cls-1 {
        fill: #10547c;
      }

      .cls-2 {
        fill: none;
        stroke: #10547c;
        stroke-miterlimit: 10;
        stroke-width: 8px;
      }
    </style>
  </defs>
  <rect class="cls-2" x="82.69" y="78.78" width="134.62" height="134.62" transform="translate(147.24 -63.28) rotate(45)"/>
  <path class="cls-1" d="M198.51,96.92c-1.74-1.74-4.57-1.74-6.31,0l-42.74,42.81-32.58-32.54-10.23-10.21c-1.74-1.74-4.57-1.74-6.31,0-1.74,1.74-1.74,4.57,0,6.31l10.23,10.21,32.58,32.54-42.74,42.81c-1.74,1.74-1.74,4.57,0,6.31.88.86,2.01,1.31,3.15,1.31s2.29-.43,3.15-1.31l42.74-42.81,28.98,28.93,13.83,13.81c.88.86,2.01,1.31,3.15,1.31s2.29-.43,3.15-1.31c1.74-1.74,1.74-4.57,0-6.31l-13.83-13.81-28.98-28.93,42.74-42.81c1.74-1.74,1.74-4.57,0-6.31h0Z"/>
</svg>