<?xml version="1.0" encoding="UTF-8"?>
<svg id="Layer_1" data-name="Layer 1" xmlns="http://www.w3.org/2000/svg" viewBox="0 0 300 300">
  <defs>
    <style>
      .cls-1 {
        fill: #10547c;
      }
    </style>
  </defs>
  <path class="cls-1" d="M261.77,188.68h-22.52c-1.71-7.61-8.47-13.01-16.28-13.01s-14.56,5.41-16.28,13.01h-120.06c-1.76-7.58-8.52-12.96-16.3-12.96s-14.54,5.37-16.3,12.96h-19.74c-.32,0-.58-.25-.59-.57v-67.53c0-.15.05-.31.18-.42.11-.11.26-.18.42-.18h215.88c4.64.01,9.01,2.18,11.85,5.85v.22H47.28c-2.07.01-3.75,1.69-3.75,3.76v29.57c0,.99.4,1.95,1.1,2.65.7.7,1.66,1.1,2.65,1.1h180.57c1.8.01,3.57.53,5.1,1.51l14.6,9.64c2.73,1.84,5.94,2.81,9.22,2.81h9.53v6.08c.26,2.77-1.76,5.24-4.54,5.52h0ZM223.04,201.66c-5.09,0-9.21-4.11-9.23-9.2-.03-3.75,2.2-7.14,5.65-8.61,3.45-1.46,7.44-.69,10.11,1.93,2.68,2.63,3.51,6.61,2.1,10.08-1.41,3.47-4.77,5.76-8.52,5.79h-.11ZM70.28,201.66c-5.11,0-9.25-4.13-9.27-9.23.31-4.88,4.35-8.67,9.24-8.67s8.94,3.79,9.24,8.67c0,2.45-.97,4.79-2.7,6.53-1.73,1.73-4.08,2.7-6.52,2.7h0ZM250.95,133.61h14.67v.71c.22,1.17.38,2.34.48,3.53v31.78h-9.19c-1.81-.02-3.59-.57-5.1-1.58l-.3-.19h-.01c3.88-11.12,3.67-23.26-.56-34.25h0ZM207.62,133.61h35.27-.01c4.24,9.44,4.97,20.08,2.07,30.02l-7.91-5.22c-2.73-1.79-5.92-2.75-9.19-2.74h-20.22v-22.06ZM167.44,133.61h32.68v22.06h-32.68v-22.06ZM127.23,133.61h32.71v22.06h-32.71v-22.06ZM87.01,133.61h32.71v22.06h-32.71v-22.06ZM51.04,155.67v-22.06h28.48v22.06h-28.48ZM273.8,137.7v-.3c0-1.57-.34-3.03-.64-4.65,0-.64-.3-1.2-.45-1.76h0c-.01-.18-.01-.34,0-.49-.22-.67-.42-1.31-.64-1.91-.87-2.58-2.13-5.01-3.75-7.21-4.25-5.52-10.82-8.76-17.78-8.78H34.3c-4.44,0-8.06,3.58-8.1,8.03v67.53c.02,4.46,3.64,8.07,8.1,8.07h19.66c1.76,7.58,8.52,12.96,16.3,12.96s14.54-5.37,16.3-12.96h120.06c1.76,7.58,8.51,12.96,16.3,12.96s14.54-5.37,16.3-12.96h22.51c6.79-.41,12.04-6.14,11.82-12.95v-9.9l.26-35.68Z"/>
</svg>