<?xml version="1.0" encoding="UTF-8"?>
<svg id="Layer_1" data-name="Layer 1" xmlns="http://www.w3.org/2000/svg" viewBox="0 0 213.28 89.45"
    style="min-height:35px">
    <defs>
        <style>
            .icons4-1 {
                fill: #fff;
            }

            .icons4-2 {
                fill: #10547c;
            }
        </style>
    </defs>
    <path class="icons4-2"
        d="M188.71,41.69l-3.48-13.29-.31-1.22h-14.95v16.54h17.19s2.1,0,2.1,0l-.54-2.04ZM2.03,71.86l1.5-.12V3.82C3.53,1.72,4.95,0,6.72,0h136.99c1.82,0,3.29,1.71,3.29,3.8v65.04h7.61V13.51c0-2.98,2.23-5.4,4.98-5.4h5.39c2.75,0,4.97,2.41,4.97,5.4v8.83h14.41c2.01,0,3.63,1.28,4.79,3.78.05.14,4.73,17.85,4.73,17.85l12.71,2.84c1.75.31,3.07,1.89,3.07,3.63v21.34l1.52.08c1.16.07,2.08,1.14,2.08,2.43s-.99,2.43-2.2,2.43h-8.69c-.31,6.96-5.67,12.54-12.27,12.54s-11.97-5.58-12.27-12.54h-31.65c-.34,7.08-5.79,12.74-12.51,12.74-4.91,0-9.13-3.05-11.2-7.44-2.07,4.39-6.28,7.44-11.19,7.44-6.72,0-12.18-5.66-12.51-12.74h-43.9c-.34,7.08-5.79,12.74-12.51,12.74-4.91,0-9.13-3.05-11.2-7.44-2.07,4.39-6.29,7.44-11.2,7.44-6.72,0-12.17-5.66-12.51-12.74H2.19C.98,76.72,0,75.63,0,74.28c0-1.28.89-2.34,2.03-2.42h0Z" />
    <path class="icons4-1"
        d="M61.59,50.39V13.99h15.7c4.06,0,7.2.82,9.44,2.44,2.24,1.63,3.35,3.93,3.35,6.92,0,1.98-.46,3.64-1.38,4.99-.92,1.35-2.17,2.38-3.74,3.07-1.58.69-3.3,1.04-5.17,1.04l.88-1.25c2.32,0,4.32.36,6.01,1.07,1.68.71,2.99,1.77,3.93,3.17.94,1.4,1.4,3.15,1.4,5.23,0,3.09-1.14,5.48-3.41,7.18-2.27,1.7-5.69,2.55-10.27,2.55h-16.74ZM65.44,47.21h12.84c3.19,0,5.63-.55,7.33-1.64,1.7-1.09,2.55-2.83,2.55-5.23s-.85-4.08-2.55-5.17c-1.7-1.09-4.14-1.64-7.33-1.64h-13.26v-3.17h12.01c2.91,0,5.17-.55,6.79-1.66,1.61-1.11,2.42-2.76,2.42-4.94s-.81-3.87-2.42-4.97c-1.61-1.09-3.87-1.64-6.79-1.64h-11.6v30.06Z" />
</svg>