<?xml version="1.0" encoding="UTF-8"?>
<svg id="Layer_1" data-name="Layer 1" xmlns="http://www.w3.org/2000/svg" viewBox="0 0 163.71 90.45">
  <defs>
    <style>
      .icons4-1 {
        fill: #fff;
      }

      .icons4-2 {
        fill: #10547c;
      }
    </style>
  </defs>
  <g>
    <path class="icons4-2" d="M151.92,41.55h-22.13c-.94,0-1.71-.77-1.71-1.71v-18.19c0-.95.77-1.72,1.71-1.72h10.91c.6,0,1.15.3,1.45.81l11.35,17.98h0c.45.55.53,1.34.17,1.96s-1.05.97-1.76.87h0ZM158.25,39.62l-13.64-21.61h0c-.67-1.04-1.82-1.66-3.06-1.66h-28.05c-2,0-3.64,1.63-3.64,3.64v59.33h9.09c0-7.19,4.87-13.49,11.85-15.28,6.98-1.78,14.28,1.39,17.72,7.72v-12.01c0-1.85.72-3.62,2.03-4.93,1.31-1.29,3.08-2.03,4.92-2.02h4.08v-8.98c-.01-1.49-.47-2.96-1.31-4.19h0Z"/>
    <path class="icons4-2" d="M160.69,56.64h-5.17c-1.66,0-3.01,1.36-3.01,3.03v19.64h8.19c1.66-.01,3.01-1.38,3.01-3.06v-16.51c.01-.81-.28-1.61-.85-2.19-.57-.58-1.35-.91-2.16-.91h0Z"/>
    <path class="icons4-2" d="M134.74,68.18c-4.5,0-8.55,2.71-10.27,6.88-1.73,4.15-.78,8.94,2.4,12.12s7.97,4.14,12.14,2.42c4.16-1.72,6.88-5.78,6.88-10.29,0-2.94-1.18-5.78-3.27-7.87-2.09-2.09-4.92-3.25-7.87-3.25h0Z"/>
    <path class="icons4-2" d="M64.13,79.31c0,14.85-22.25,14.85-22.25,0s22.25-14.84,22.25,0"/>
    <path class="icons4-2" d="M105.97,4.38v74.95h-37.22c.21-4.32-1.35-8.54-4.33-11.67-2.98-3.13-7.11-4.89-11.43-4.89s-8.46,1.76-11.44,4.89c-2.97,3.13-4.55,7.35-4.33,11.65h-2.12c.21-4.31-1.35-8.53-4.33-11.65-2.98-3.13-7.11-4.89-11.43-4.89s-8.46,1.76-11.44,4.89c-2.97,3.13-4.55,7.35-4.33,11.65h-1.46c-1.17,0-2.1-.94-2.1-2.1V4.45C0,2,1.96.03,4.41,0h97.17c2.4.03,4.36,1.96,4.39,4.38h0Z"/>
    <path class="icons4-2" d="M19.31,68.18c-4.49,0-8.55,2.71-10.27,6.88-1.73,4.15-.78,8.94,2.4,12.12s7.97,4.14,12.14,2.42c4.16-1.72,6.88-5.78,6.88-10.29,0-2.94-1.18-5.78-3.27-7.87-2.09-2.09-4.92-3.25-7.87-3.25h0Z"/>
  </g>
  <path class="icons4-1" d="M40.44,52.13V15.73h15.7c4.06,0,7.2.82,9.44,2.44,2.24,1.63,3.35,3.93,3.35,6.92,0,1.98-.46,3.64-1.38,4.99-.92,1.35-2.17,2.38-3.74,3.07-1.58.69-3.3,1.04-5.17,1.04l.88-1.25c2.32,0,4.32.36,6.01,1.07,1.68.71,2.99,1.77,3.93,3.17.94,1.4,1.4,3.15,1.4,5.23,0,3.09-1.14,5.48-3.41,7.18-2.27,1.7-5.69,2.55-10.27,2.55h-16.74ZM44.29,48.95h12.84c3.19,0,5.63-.55,7.33-1.64,1.7-1.09,2.55-2.83,2.55-5.23s-.85-4.08-2.55-5.17c-1.7-1.09-4.14-1.64-7.33-1.64h-13.26v-3.17h12.01c2.91,0,5.17-.55,6.79-1.66,1.61-1.11,2.42-2.76,2.42-4.94s-.81-3.87-2.42-4.97c-1.61-1.09-3.87-1.64-6.79-1.64h-11.6v30.06Z"/>
</svg>
