<?xml version="1.0" encoding="UTF-8"?>
<svg id="Layer_1" data-name="Layer 1" xmlns="http://www.w3.org/2000/svg" viewBox="0 0 251.54 89.15" minHeight="35px">
    <defs>
        <style>
            .icons6-1 {
                fill: #fff;
            }

            .icons6-2 {
                fill: #10547c;
            }
        </style>
    </defs>
    <g>
        <path class="icons6-2"
            d="M229.18,68.47c-5.59,0-10.34,4.75-10.34,10.34s4.75,10.34,10.34,10.34,10.34-4.75,10.34-10.34c0-5.86-4.75-10.34-10.34-10.34Z" />
        <path class="icons6-2" d="M251.54,72.67h-10.07c.56,0,.84,3.91.84,5.87v2.51h9.23v-8.38Z" />
        <rect class="icons6-2" width="167.69" height="64.28" />
        <path class="icons6-2"
            d="M150.92,68.47c-5.59,0-10.34,4.75-10.34,10.34s4.75,10.34,10.34,10.34,10.34-4.75,10.34-10.34c0-5.86-4.47-10.34-10.34-10.34Z" />
        <path class="icons6-2"
            d="M119.34,68.47c-5.59,0-10.34,4.75-10.34,10.34s4.75,10.34,10.34,10.34,10.34-4.75,10.34-10.34c0-5.86-4.47-10.34-10.34-10.34Z" />
        <path class="icons6-2"
            d="M108.44,67.92h-3.91c-4.19,0-7.54,3.35-7.54,7.54v4.19h6.99v-1.11c.27-3.92,1.94-7.83,4.47-10.62h0Z" />
        <path class="icons6-2"
            d="M140.03,67.08h-10.07c2.79,2.79,4.48,6.15,4.48,10.34v.84h1.11v-.84c.28-4.19,1.95-7.54,4.48-10.34h0Z" />
        <path class="icons6-2" d="M192.85,67.08h-31.03c2.79,2.79,4.48,6.15,4.48,10.34v.84h26.55v-11.18Z" />
        <path class="icons6-2"
            d="M53.94,68.47c-5.59,0-10.34,4.75-10.34,10.34s4.75,10.34,10.34,10.34,10.34-4.75,10.34-10.34c0-5.86-4.75-10.34-10.34-10.34Z" />
        <path class="icons6-2"
            d="M22.36,68.47c-5.59,0-10.34,4.75-10.34,10.34s4.75,10.34,10.34,10.34,10.34-4.75,10.34-10.34c0-5.86-4.75-10.34-10.34-10.34Z" />
        <path class="icons6-2" d="M11.46,67.92H0v11.74h6.99v-1.11c0-3.92,1.68-7.83,4.48-10.62h0Z" />
        <path class="icons6-2"
            d="M64,67.92h3.91c4.19,0,7.54,3.35,7.54,7.54v4.19h-6.99v-1.11c.01-3.92-1.67-7.83-4.47-10.62h0Z" />
        <path class="icons6-2"
            d="M43.04,67.08h-10.07c2.79,2.79,4.48,6.15,4.48,10.34v.84h1.11v-.84c.01-4.19,1.68-7.54,4.48-10.34h0Z" />
        <path class="icons6-2"
            d="M204.03,43.6v-10.07h8.94l6.43,11.74s-12.58.84-15.37-1.67h0ZM248.19,63.44c-2.24-6.43-.84-18.45-21.8-18.45-5.31-8.38-6.15-11.46-6.15-11.46h1.95s-.28-5.59-5.31-5.59h-20.96v53.1h19.01c0-2.79-.28-1.4-.28-2.24,0-8.1,6.43-15.37,14.53-15.37,4.19,0,7.83.84,10.62,3.64h11.18c-.56-2.78-2.24-1.94-2.79-3.62h0Z" />
    </g>
    <g>
        <path class="icons6-1"
            d="M41.6,50.08V13.68h15.7c4.06,0,7.2.82,9.44,2.44,2.24,1.63,3.35,3.93,3.35,6.92,0,1.98-.46,3.64-1.38,4.99-.92,1.35-2.17,2.38-3.74,3.07-1.58.69-3.3,1.04-5.17,1.04l.88-1.25c2.32,0,4.32.36,6.01,1.07,1.68.71,2.99,1.77,3.93,3.17.94,1.4,1.4,3.15,1.4,5.23,0,3.09-1.14,5.48-3.41,7.18-2.27,1.7-5.69,2.55-10.27,2.55h-16.74ZM45.44,46.91h12.84c3.19,0,5.63-.55,7.33-1.64,1.7-1.09,2.55-2.83,2.55-5.23s-.85-4.08-2.55-5.17c-1.7-1.09-4.14-1.64-7.33-1.64h-13.26v-3.17h12.01c2.91,0,5.17-.55,6.79-1.66,1.61-1.11,2.42-2.76,2.42-4.94s-.81-3.87-2.42-4.97c-1.61-1.09-3.87-1.64-6.79-1.64h-11.6v30.06Z" />
        <path class="icons6-1" d="M78,37.6v-3.22h13.62v3.22h-13.62Z" />
        <path class="icons6-1"
            d="M94.84,50.08l16.64-36.4h3.8l16.64,36.4h-4.06l-15.29-34.16h1.56l-15.29,34.16h-4ZM101.4,40.36l1.14-3.12h21.16l1.14,3.12h-23.45Z" />
    </g>
</svg>