<?xml version="1.0" encoding="UTF-8"?>
<svg id="Layer_1" data-name="Layer 1" xmlns="http://www.w3.org/2000/svg" viewBox="0 0 172.86 103.97"
    style="min-width:50px">
    <defs>
        <style>
            .cls-1 {
                fill: #10547c;
            }
        </style>
    </defs>
    <path class="cls-1"
        d="M10.82,0h119.57c5.93.35,10.63,5.31,10.8,11.44l2.13,24.69c.22,2.64,1.8,4.71,3.6,4.71h15.12c6.38.49,11.19,6.18,10.8,12.77v22.72c.39,6.59-4.42,12.27-10.8,12.77h-11.16c-1.71,8.65-9.08,14.87-17.65,14.87s-15.94-6.22-17.64-14.87H50.06c-1.7,8.65-9.08,14.87-17.64,14.87s-15.94-6.22-17.64-14.87h-3.96c-6.38-.49-11.19-6.18-10.8-12.77V12.77C-.37,6.19,4.44.49,10.82,0h0ZM82.58,81.68h18.25V25.99h-18.25v55.69ZM32.42,25.99v18.57h18v-18.57h-18ZM7.22,25.99v18.57h18v-18.57H7.22ZM57.62,44.55h17.75v-18.56h-17.75v18.56ZM75.37,51.98H7.22v3.71h68.16v-3.71ZM136.15,36.83l-.97-10.84h-16.09c-.17.22-.26.49-.25.78v8.91c0,2.82,1.65,5.2,3.6,5.2h14.66c-.5-1.3-.82-2.67-.94-4.05h0ZM165.64,76.34v-22.72c0-2.9-1.65-5.35-3.6-5.35h-39.61c-6.34-.46-11.15-6.08-10.8-12.63v-8.91c-.18-4.3,3.03-7.94,7.2-8.17h15.7l-.57-6.43c-.22-2.64-1.8-4.71-3.6-4.71H10.82c-1.94,0-3.6,2.45-3.6,5.35v5.79h70.38c.23-.02.46-.02.69,0,.22-.02.45-.02.68,0h25.46c1.98,0,3.6,1.66,3.6,3.71v59.41h7.56c1.7-8.65,9.08-14.87,17.64-14.87s15.94,6.22,17.65,14.87h11.16c1.94,0,3.6-2.45,3.6-5.35h0ZM133.23,96.53c4.37,0,8.31-2.71,9.98-6.88,1.67-4.16.74-8.95-2.34-12.13-3.09-3.19-7.74-4.14-11.77-2.42-4.04,1.72-6.67,5.78-6.67,10.29,0,6.15,4.84,11.14,10.8,11.14h0ZM32.42,96.53c4.37,0,8.31-2.71,9.98-6.88,1.67-4.16.75-8.95-2.34-12.13-3.09-3.19-7.73-4.14-11.77-2.42-4.04,1.72-6.67,5.78-6.67,10.29,0,6.15,4.83,11.14,10.8,11.14h0ZM7.22,76.34c0,2.9,1.65,5.35,3.6,5.35h3.96c1.7-8.65,9.08-14.87,17.64-14.87s15.94,6.22,17.64,14.87h25.2v-18.57s-68.04,0-68.04,0v13.22Z" />
    <path class="cls-1"
        d="M158.44,51.98c1.98,0,3.6,1.66,3.6,3.71v3.72c0,2.05-1.61,3.71-3.6,3.71s-3.6-1.66-3.6-3.71v-3.72c0-.98.38-1.93,1.06-2.62.68-.7,1.59-1.09,2.55-1.09h0Z" />
    <path class="cls-1" d="M129.63,85.39c0,4.95,7.2,4.95,7.2,0s-7.2-4.95-7.2,0" />
    <path class="cls-1" d="M28.83,85.39c0,4.95,7.2,4.95,7.2,0s-7.2-4.95-7.2,0" />
</svg>